<svg width="94" height="94" viewBox="2 2 91 91" fill="none" xmlns="http://www.w3.org/2000/svg">
    <path fill-rule="evenodd" clip-rule="evenodd"
          d="M94 47C94 72.9575 72.9575 94 47 94C21.0426 94 0 72.9575 0 47C0 21.0426 21.0426 0 47 0C72.9575 0 94 21.0426 94 47ZM58.75 29.375C58.75 35.8643 53.4895 41.125 47 41.125C40.5107 41.125 35.25 35.8643 35.25 29.375C35.25 22.8857 40.5107 17.625 47 17.625C53.4895 17.625 58.75 22.8857 58.75 29.375ZM46.9996 52.875C35.1465 52.875 24.9331 59.8956 20.2907 70.0047C26.7549 77.503 36.3231 82.25 46.9999 82.25C57.6766 82.25 67.2447 77.5036 73.7089 70.0053C69.0665 59.8956 58.8528 52.875 46.9996 52.875Z"
          fill="#4A5568"/>
</svg>
